<?xml version="1.0" encoding="utf-8"?>
<!-- Generator: Adobe Illustrator 27.9.0, SVG Export Plug-In . SVG Version: 6.00 Build 0)  -->
<svg version="1.1" id="Layer_1" xmlns="http://www.w3.org/2000/svg" xmlns:xlink="http://www.w3.org/1999/xlink" x="0px" y="0px"
	 viewBox="0 0 1444.4 423.3" style="enable-background:new 0 0 1444.4 423.3;" xml:space="preserve">
<style type="text/css">
	.st0{fill:#F6DCB2;}
	.st1{fill:#1C4D25;}
	.st2{fill:#FFD997;}
</style>
<rect class="st0" width="1444.4" height="423.3"/>
<g>
	<path class="st1" d="M991.4,177.4c-7.5-9-17.2-15.1-30.6-15.1c-13.3,0-23.3,6.1-30.8,15.1c-13.7,16.3-15.6,47.5,0.4,67.3
		c7.7,9.5,18.5,15.1,30.4,15c11.9,0.1,22.3-5.5,30.2-15C1006.4,226.1,1005.3,194,991.4,177.4z M960.8,245c-7.8,0-10.8-5.9-12.5-9.1
		c-4.9-9.6-5.5-34.2-3.1-43c1.2-4.3,4-16.5,15.5-16.5c11.5,0,14,12.2,15.2,16.5c2.3,8.4,1.9,32.2-2.5,41.7
		C971.8,238.4,968.6,245,960.8,245z"/>
	<path class="st1" d="M607.7,246.4c-0.7-2.6-1.2-5.2-1.5-7.9c-0.3-2.4-0.4-4.6-0.5-6.6c0,0,0,0,0,0v-67h-25.3
		c0.1,0.2,0.3,1.1,0.6,2.5c0.3,1.5,0.6,2.9,0.9,4.3c0.3,1.4,0.5,2.1,0.5,2.2v62.4c0,0-3.9,4.4-10.2,7.3c-3.2,1.5-8.1,1.6-10.3-0.1
		c-4-2.9-4.2-7.1-4.2-17v-61.8h-25.3l2,9.1v58.2c0,5.4,0.8,10.1,2.3,14.1c1.5,4.1,4,7.6,7.5,9.9c3.4,2.4,8.4,3.9,14.8,3.6
		c4.4-0.2,9-1.4,13.2-3.5c4.2-2.2,7.7-4.8,10.7-7.9c0.3,1.9,1.8,7.4,4.1,11.1c7.3-0.7,15.8-3.1,23.5-6.5
		C609.3,251.2,608.3,249,607.7,246.4z"/>
	<path class="st1" d="M728.5,162.5c2.1,3.4,2.7,10.1,2.9,11.9c2.7-3.4,6-6.1,10-8.1c4-2,8.2-3.4,12.6-3.4c5.5,0,10.7,1.5,14.7,3.7
		c4,2.3,7.2,5.4,10,9.2c12,16.5,12.6,45.7,5,62.8c-2.8,6.1-7,11-12,14.9c-5.1,3.9-12.1,6.3-20,6c-3.5-0.1-6.2-0.6-9.7-1.7
		c-3.4-1.1-7.2-3.9-9.8-6.2c0.2,1.4,0.3,3.9,0.3,5.3c0,1.4,0,2.6,0,3.4V284l2.2,9.1h-25.3V188.7c0-7.9-4.4-16.2-5.6-18.1
		C710.1,167.2,720.1,164.4,728.5,162.5z M747.2,177.4c-2.8,0-6,1.2-8.5,3.3c-2.5,2.1-4.6,4.5-6.4,7v49.1c0,0,2.3,2.8,6.5,5.6
		c2.5,1.7,5.1,3.1,8.7,3.1c3.2,0,6-0.9,8.2-2.6c2.2-1.7,4-4.1,5.3-6.9c1.3-2.9,2.4-6.5,3.1-10c1.1-5.4,1.6-13.7,0.9-21.9
		c-0.7-8.8-2.9-14.4-4.4-17.2c-1.4-2.8-3.3-5.1-5.5-6.8C752.8,178.4,750.5,177.4,747.2,177.4z"/>
	<path class="st1" d="M910.9,256.7l-2.2-9.1v-57.2c0-5.4-0.8-10.1-2.3-14.1c-1.5-4.1-4-7.3-7.5-9.6c-3.4-2.4-9.2-4.1-14.8-4.1
		c-4.4,0-9.6,1.4-13.8,3.8c-4.2,2.3-8.8,5.3-11.8,8.4c-0.2-1.9-0.8-9.1-2.9-13.7c-8.5,1.8-17.8,4.4-24.5,8c1.3,1.8,5.1,7.4,5.1,18.4
		v58.8c7.7,0.4,16.9,4.7,23.2,11.9v-69.9c1.8-2.2,5-4.7,7.2-6.3c2.3-1.5,9.5-5.1,15-0.9c3.1,2.3,4.1,7.2,4.1,17.1v58.7L910.9,256.7z
		"/>
	<g>
		<path class="st1" d="M851.1,267.4c0-7.7-12.2-12.5-27.6-12.5c0,0-1.5-1-1.5-4.8c0-15,0-59,0-68.5c0-11.5-0.1-20.2-6.1-31.3
			c-7.5,0.7-18.5,3.9-26.2,6.6c2.2,2.9,9.7,8.1,9.7,32.7c0,0,0,59.5,0,63.8c0,4.3,1.7,6.6,1.7,6.6c-6,2.8-3.9,9.1-0.6,10.6
			c-1.8,11.5,6.4,24.4,23.9,24.4c14.9,0,23.6-10.4,23.6-22C848,273,851.1,271.2,851.1,267.4z M805.9,165.3c-0.5-2.3,0.5-4.4,2.1-4.8
			c1.7-0.4,3.5,1.1,4,3.4c0.5,2.3-0.5,4.4-2.1,4.8C808.2,169.1,806.4,167.6,805.9,165.3z M824.4,271.8c-10.2,0-18.4-2.5-18.4-5.6
			c0-3.1,8.2-5.6,18.4-5.6c10.2,0,18.4,2.5,18.4,5.6C842.8,269.3,834.6,271.8,824.4,271.8z"/>
		<g>
			<path class="st2" d="M805.9,165.3c-0.5-2.3,0.5-4.4,2.1-4.8c1.7-0.4,3.5,1.1,4,3.4c0.5,2.3-0.5,4.4-2.1,4.8
				C808.2,169.1,806.4,167.6,805.9,165.3z"/>
			<path class="st2" d="M824.4,271.8c-10.2,0-18.4-2.5-18.4-5.6s8.2-5.6,18.4-5.6c10.2,0,18.4,2.5,18.4,5.6S834.6,271.8,824.4,271.8
				z"/>
		</g>
	</g>
	<path class="st1" d="M639.4,162.5c2.1,3.4,2.7,10.1,2.9,11.9c2.7-3.4,6-6.1,10-8.1c4-2,8.2-3.4,12.6-3.4c5.5,0,10.7,1.5,14.7,3.7
		c4,2.3,7.2,5.4,10,9.2c12,16.5,12.6,45.7,5,62.8c-2.8,6.1-7,11-12,14.9c-5.1,3.9-12.1,6.3-20,6c-3.5-0.1-6.2-0.6-9.7-1.7
		c-3.4-1.1-7.2-3.9-9.8-6.2c0.2,1.4,0.3,3.9,0.3,5.3c0,1.4,0,2.6,0,3.4V284l2.2,9.1h-25.3V188.7c0-7.9-4.4-16.2-5.6-18.1
		C621,167.2,631,164.4,639.4,162.5z M658,177.4c-2.8,0-6,1.2-8.5,3.3c-2.5,2.1-4.6,4.5-6.4,7v49.1c0,0,2.3,2.8,6.5,5.6
		c2.5,1.7,5.1,3.1,8.7,3.1c3.2,0,6-0.9,8.2-2.6c2.2-1.7,4-4.1,5.3-6.9c1.3-2.9,2.4-6.5,3.1-10c1.1-5.4,1.6-13.7,0.9-21.9
		c-0.7-8.8-2.9-14.4-4.4-17.2c-1.4-2.8-3.3-5.1-5.5-6.8C663.7,178.4,661.4,177.4,658,177.4z"/>
	<path class="st1" d="M456.2,248.1c-11.7-17.4-16.3-37.2-13-60.6c3.1-22.3,16.1-40,30.8-49.6c8.9-5.8,20.6-9.5,31.3-9.5
		c8.5,0,17.5,2.8,24.2,6.7v20.5c-6.9-7.1-13.9-12.1-22.5-12.1c-12,0-19.5,8.8-22.9,13.1c-18,22.6-17.3,71.4,8.9,91.1
		c7.4,5.6,22.5,10.3,36.6,2.8v20.1C496,283.3,467.1,264.2,456.2,248.1z"/>
</g>
</svg>
