<?xml version="1.0" encoding="UTF-8"?>
<svg id="Layer_2" data-name="Layer 2" xmlns="http://www.w3.org/2000/svg" viewBox="0 0 559.98 166.54">
  <defs>
    <style>
      .cls-1 {
        fill: #194c24;
      }

      .cls-1, .cls-2 {
        stroke-width: 0px;
      }

      .cls-2 {
        fill: #ffd997;
      }
    </style>
  </defs>
  <g id="Graphics">
    <g>
      <path class="cls-1" d="m549.21,48.96c-7.54-9.01-17.23-15.14-30.55-15.14s-23.26,6.14-30.82,15.14c-13.7,16.31-15.63,47.51.4,67.28,7.73,9.54,18.51,15.12,30.42,14.97,11.91.15,22.31-5.53,30.15-14.97,15.38-18.51,14.3-50.68.4-67.28Zm-30.55,67.61c-7.75,0-10.84-5.88-12.48-9.09-4.92-9.62-5.46-34.19-3.06-42.98,1.16-4.25,4-16.5,15.54-16.5s13.98,12.19,15.16,16.5c2.3,8.41,1.9,32.23-2.45,41.72-1.71,3.73-4.95,10.34-12.7,10.34Z"/>
      <path class="cls-1" d="m165.47,117.99c-.67-2.57-1.16-5.2-1.47-7.87-.28-2.41-.42-4.6-.45-6.59-.01.01-.03.02-.04.03V36.55h-25.32c.1.21.31,1.06.62,2.55.31,1.49.62,2.93.93,4.32.31,1.39.46,2.14.46,2.24v62.41s-3.88,4.41-10.19,7.33c-3.22,1.49-8.13,1.56-10.33-.07-3.97-2.94-4.25-7.08-4.25-16.98v-61.79h-25.31l2.01,9.11v58.16c0,5.35.77,10.06,2.32,14.13,1.54,4.07,4.04,7.57,7.49,9.93,3.45,2.37,8.41,3.89,14.83,3.55,4.42-.23,9.01-1.36,13.18-3.52,4.17-2.16,7.74-4.79,10.73-7.87.3,1.91,1.77,7.41,4.12,11.07,7.33-.66,15.83-3.13,23.54-6.47-1.24-1.85-2.19-4.07-2.86-6.64Z"/>
      <path class="cls-1" d="m286.27,34.1c2.13,3.39,2.73,10.11,2.93,11.86,2.68-3.4,6-6.1,9.96-8.11,3.96-2.01,8.16-3.35,12.58-3.35,5.45,0,10.68,1.47,14.7,3.74,4.01,2.26,7.24,5.41,9.98,9.18,11.95,16.48,12.6,45.74,4.95,62.8-2.75,6.13-6.96,11.03-12.05,14.89-5.1,3.86-12.13,6.32-20.05,6.03-3.5-.13-6.21-.6-9.66-1.73-3.45-1.13-7.22-3.87-9.79-6.24.21,1.44.31,3.91.31,5.35v27.08l2.16,9.11h-25.31V60.3c0-7.86-4.4-16.22-5.64-18.07,6.58-3.42,16.54-6.22,24.93-8.12Zm18.71,14.94c-2.82,0-6,1.2-8.49,3.31-2.49,2.11-4.61,4.45-6.35,7.02v49.13s2.29,2.76,6.48,5.64c2.51,1.72,5.15,3.09,8.72,3.09,3.24,0,5.96-.87,8.16-2.62,2.2-1.75,3.97-4.07,5.29-6.95,1.33-2.88,2.37-6.55,3.06-9.97,1.08-5.37,1.57-13.68.92-21.93-.7-8.77-2.94-14.41-4.36-17.24-1.41-2.83-3.26-5.09-5.54-6.79-2.29-1.7-4.57-2.69-7.89-2.69Z"/>
      <path class="cls-1" d="m468.67,128.29l-2.16-9.11v-57.16c0-5.35-.77-10.06-2.32-14.12-1.54-4.07-4.04-7.28-7.49-9.65-3.45-2.37-9.17-4.12-14.83-4.12-4.43,0-9.6,1.44-13.82,3.76-4.22,2.31-8.76,5.3-11.85,8.39-.21-1.85-.84-9.09-2.93-13.69-8.55,1.82-17.76,4.42-24.54,7.99,1.34,1.75,5.1,7.42,5.1,18.36v58.84c7.68.35,16.94,4.66,23.15,11.88V59.71c1.78-2.25,4.98-4.71,7.25-6.26,2.26-1.54,9.5-5.07,15.04-.92,3.13,2.34,4.09,7.24,4.09,17.06v58.69h25.32Z"/>
      <g>
        <path class="cls-1" d="m408.91,138.96c0-7.68-12.19-12.52-27.57-12.52,0,0-1.48-1.02-1.48-4.82V53.1c0-11.47-.06-20.21-6.1-31.28-7.53.69-18.49,3.88-26.23,6.64,2.23,2.93,9.75,8.06,9.75,32.71v63.78c0,4.27,1.72,6.58,1.72,6.58-6.01,2.85-3.89,9.12-.63,10.6-1.76,11.46,6.4,24.4,23.88,24.4,14.93,0,23.61-10.38,23.61-21.96,0,0,3.06-1.82,3.06-5.62Zm-45.18-102.01c-.51-2.26.45-4.4,2.15-4.79,1.7-.38,3.48,1.14,3.99,3.4.51,2.26-.45,4.4-2.15,4.79-1.7.38-3.48-1.14-3.99-3.4Zm18.51,106.46c-10.17,0-18.42-2.5-18.42-5.58s8.24-5.58,18.42-5.58,18.41,2.5,18.41,5.58-8.24,5.58-18.41,5.58Z"/>
        <g>
          <path class="cls-2" d="m363.73,36.95c-.51-2.26.45-4.4,2.15-4.79,1.7-.38,3.48,1.14,3.99,3.4.51,2.26-.45,4.4-2.15,4.79-1.7.38-3.48-1.14-3.99-3.4Z"/>
          <path class="cls-2" d="m382.24,143.4c-10.17,0-18.42-2.5-18.42-5.58s8.24-5.58,18.42-5.58,18.41,2.5,18.41,5.58-8.24,5.58-18.41,5.58Z"/>
        </g>
      </g>
      <path class="cls-1" d="m197.16,34.1c2.13,3.39,2.73,10.11,2.93,11.86,2.68-3.4,6-6.1,9.96-8.11,3.96-2.01,8.16-3.35,12.58-3.35,5.45,0,10.68,1.47,14.7,3.74,4.01,2.26,7.24,5.41,9.98,9.18,11.95,16.48,12.6,45.74,4.95,62.8-2.75,6.13-6.96,11.03-12.05,14.89-5.1,3.86-12.13,6.32-20.05,6.03-3.5-.13-6.21-.6-9.66-1.73-3.45-1.13-7.22-3.87-9.79-6.24.21,1.44.31,3.91.31,5.35v27.08l2.16,9.11h-25.31V60.3c0-7.86-4.4-16.22-5.64-18.07,6.58-3.42,16.54-6.22,24.93-8.12Zm18.69,14.94c-2.82,0-5.98,1.2-8.47,3.31-2.49,2.11-4.61,4.45-6.35,7.02v49.13s2.29,2.76,6.48,5.64c2.51,1.72,5.15,3.09,8.72,3.09,3.24,0,5.96-.87,8.16-2.62,2.2-1.75,3.97-4.07,5.29-6.95,1.33-2.88,2.37-6.55,3.06-9.97,1.08-5.37,1.57-13.68.92-21.93-.7-8.77-2.94-14.41-4.36-17.24-1.41-2.83-3.26-5.09-5.54-6.79-2.29-1.7-4.59-2.69-7.91-2.69Z"/>
      <path class="cls-1" d="m14.03,119.69C2.29,102.32-2.23,82.53,1.03,59.1,4.13,36.83,17.11,19.11,31.8,9.52,40.71,3.7,52.44,0,63.13,0c8.49,0,17.48,2.79,24.21,6.72v20.53c-6.91-7.12-13.92-12.08-22.54-12.08-12.03,0-19.49,8.84-22.88,13.1-17.97,22.59-17.34,71.39,8.87,91.11,7.41,5.57,22.52,10.26,36.55,2.79v20.05c-33.51,12.71-62.41-6.42-73.3-22.54Z"/>
    </g>
  </g>
</svg>