<?xml version="1.0" encoding="utf-8"?>
<!-- Generator: Adobe Illustrator 27.9.0, SVG Export Plug-In . SVG Version: 6.00 Build 0)  -->
<svg version="1.1" id="Layer_1" xmlns="http://www.w3.org/2000/svg" xmlns:xlink="http://www.w3.org/1999/xlink" x="0px" y="0px"
	 viewBox="0 0 1000 1000" style="enable-background:new 0 0 1000 1000;" xml:space="preserve">
<style type="text/css">
	.st0{fill:#FFFFFF;}
	.st1{stroke:#FFFFFF;stroke-width:3;stroke-miterlimit:10;}
	.st2{fill:#FFFFFF;stroke:#000000;stroke-width:3;stroke-miterlimit:10;}
	.st3{fill:#B3B3B3;}
	.st4{fill:#999999;}
	.st5{fill:none;}
</style>
<path class="st0" d="M1307.5,891.5h-130c-2.8,0-5-2.2-5-5v-130c0-2.8,2.2-5,5-5h130c2.8,0,5,2.2,5,5v130
	C1312.5,889.3,1310.3,891.5,1307.5,891.5z"/>
<g>
	<g>
		<path d="M1306.7-539.1c3,0,6.1,0.5,9.2,1.5c3.1,1,6.1,2.5,9.1,4.6l-5.4,7c-2.2-1.8-4.4-3.2-6.6-4c-2.2-0.8-4.2-1.3-6.2-1.3
			c-2.4,0-4.6,0.6-6.7,1.7c-2,1.1-3.8,2.7-5.4,4.7s-2.8,4.5-3.6,7.4c-0.8,2.9-1.3,6.1-1.3,9.6c0,7.5,1.7,13.3,5.1,17.3
			c3.4,4,7.7,6,12.9,6c2.3,0,4.6-0.4,6.8-1.1c2.2-0.7,4.5-1.8,6.9-3.1l3.2,6.4c-3.2,2-6.3,3.5-9.2,4.5c-3,1-6.3,1.5-10,1.5
			c-5.1,0-9.7-1.3-13.6-3.9c-4-2.6-7.1-6.3-9.4-11.1c-2.3-4.8-3.4-10.4-3.4-16.9c0-6.2,1.3-11.7,3.8-16.3c2.5-4.6,5.9-8.2,10.1-10.7
			C1297.2-537.8,1301.8-539.1,1306.7-539.1z"/>
		<path d="M1348.6-537.6v36.7c0,2.3,0.2,4.7,0.6,7.1c0.4,2.4,1.3,4.5,2.7,6.1c1.4,1.6,3.6,2.4,6.7,2.4c3,0,5.7-0.6,8.1-1.9
			c2.4-1.3,4.4-3.1,5.9-5.3c1.5-2.3,2.3-4.9,2.3-8v-30c0-0.1-0.1-0.7-0.4-1.7c-0.2-1.1-0.5-2.2-0.7-3.4c-0.2-1.2-0.4-1.8-0.5-2h11.5
			v48c0,1.5,0.3,2.6,0.8,3.4c0.5,0.7,1.3,1.1,2.5,1.1c1.1,0,2.6-0.4,4.6-1.1l2.2,6.5c-1.6,0.9-3.4,1.6-5.3,2.1
			c-2,0.5-3.8,0.8-5.6,0.8c-2.1,0-3.9-0.6-5.5-1.8c-1.6-1.2-2.6-3.3-3.1-6.4c-2.3,2.4-5.1,4.4-8.3,6.1c-3.2,1.7-6.6,2.5-10,2.5
			c-4.4,0-7.9-0.9-10.6-2.8c-2.7-1.8-4.6-4.3-5.8-7.5c-1.2-3.2-1.8-6.8-1.8-11v-32.9l-1.6-7.1H1348.6z"/>
		<path d="M1413.2-538.5c0.6,1.3,1.1,2.6,1.5,4c0.4,1.4,0.6,2.8,0.8,4.1c2.1-2.6,4.7-4.7,7.7-6.3c3.1-1.6,6.3-2.3,9.8-2.3
			c4.2,0,7.9,0.9,11,2.6c3.1,1.8,5.7,4.1,7.7,7.1c2,3,3.6,6.3,4.6,10c1,3.6,1.5,7.3,1.5,11.1c0,5.4-1,10.6-2.9,15.4
			c-2,4.8-4.9,8.8-8.9,11.8s-8.9,4.5-14.9,4.5c-2.7,0-5.4-0.4-8.1-1.3c-2.7-0.9-5-2.2-7-4.1c0.2,1.1,0.2,2.2,0.2,3.4
			c0,1.1,0,2,0,2.6v16.7l1.7,7.1h-11.5v-68.2c0-1.7-0.1-3.6-0.4-5.6c-0.2-2.1-0.6-4.1-1.1-6.1c-0.5-2-1.3-3.7-2.2-5.2L1413.2-538.5z
			 M1430-530.2c-2.7,0-5.3,0.8-7.7,2.5c-2.4,1.6-4.4,3.5-6.1,5.5v20.2c0,3.1,0.5,6,1.5,8.7c1,2.7,2.6,4.8,4.7,6.4
			c2.2,1.6,5,2.4,8.4,2.4c3.1,0,5.7-0.7,7.9-2c2.1-1.4,3.8-3.2,5.1-5.4c1.3-2.2,2.2-4.7,2.7-7.4c0.5-2.7,0.8-5.3,0.8-8
			c0-2.8-0.3-5.5-0.9-8.2c-0.6-2.7-1.6-5.1-2.9-7.3c-1.4-2.2-3.1-4-5.3-5.3C1435.9-529.5,1433.2-530.2,1430-530.2z"/>
		<path d="M1481.1-538.5c0.6,1.3,1.1,2.6,1.5,4c0.4,1.4,0.6,2.8,0.8,4.1c2.1-2.6,4.7-4.7,7.7-6.3c3.1-1.6,6.3-2.3,9.8-2.3
			c4.2,0,7.9,0.9,11,2.6c3.1,1.8,5.7,4.1,7.7,7.1s3.6,6.3,4.6,10c1,3.6,1.5,7.3,1.5,11.1c0,5.4-1,10.6-2.9,15.4
			c-2,4.8-4.9,8.8-8.9,11.8c-4,3-8.9,4.5-14.9,4.5c-2.7,0-5.4-0.4-8.1-1.3c-2.7-0.9-5-2.2-7-4.1c0.2,1.1,0.2,2.2,0.2,3.4
			c0,1.1,0,2,0,2.6v16.7l1.7,7.1h-11.5v-68.2c0-1.7-0.1-3.6-0.4-5.6c-0.2-2.1-0.6-4.1-1.1-6.1c-0.5-2-1.3-3.7-2.2-5.2L1481.1-538.5z
			 M1497.9-530.2c-2.7,0-5.3,0.8-7.7,2.5c-2.4,1.6-4.4,3.5-6.1,5.5v20.2c0,3.1,0.5,6,1.5,8.7c1,2.7,2.6,4.8,4.7,6.4
			c2.2,1.6,5,2.4,8.4,2.4c3.1,0,5.7-0.7,7.9-2c2.1-1.4,3.8-3.2,5.1-5.4c1.3-2.2,2.2-4.7,2.7-7.4c0.5-2.7,0.8-5.3,0.8-8
			c0-2.8-0.3-5.5-0.9-8.2c-0.6-2.7-1.6-5.1-2.9-7.3c-1.4-2.2-3.1-4-5.3-5.3C1503.8-529.5,1501.1-530.2,1497.9-530.2z"/>
		<path d="M1577.8-538.6c0.6,1.4,1,2.8,1.4,4.2c0.4,1.4,0.7,2.9,0.8,4.3c2.4-2.4,5.2-4.5,8.5-6.3c3.3-1.8,6.6-2.7,10.1-2.7
			c4.4,0,7.9,0.9,10.6,2.8c2.7,1.8,4.6,4.3,5.8,7.5c1.2,3.2,1.8,6.8,1.8,11v39.8h-9.8v-36.6c0-2.5-0.2-4.9-0.5-7.3s-1.2-4.4-2.6-5.9
			c-1.4-1.6-3.7-2.3-6.9-2.3c-1.9,0-3.9,0.4-5.9,1.1c-2,0.8-3.9,1.7-5.6,2.9c-1.8,1.2-3.4,2.5-4.8,3.8v44.3h-9.8v-42.2
			c0-1.6-0.1-3.5-0.4-5.6c-0.2-2.1-0.6-4.2-1.2-6.2c-0.6-2-1.4-3.7-2.4-5.1L1577.8-538.6z"/>
		<path d="M1659.9-476.4c-5.8,0-10.7-1.5-14.7-4.4c-4-2.9-6.9-6.7-8.9-11.5c-2-4.7-2.9-9.8-2.9-15.1c0-5.4,1.1-10.5,3.2-15.3
			c2.1-4.8,5.2-8.8,9.3-11.8c4.1-3,9-4.6,14.8-4.6c5.9,0,10.9,1.4,14.8,4.3c4,2.9,6.9,6.7,8.9,11.4c2,4.7,2.9,9.8,2.9,15.2
			c0,5.4-1,10.6-3.1,15.4c-2.1,4.8-5.2,8.8-9.2,11.8C1670.8-477.9,1665.8-476.4,1659.9-476.4z M1660-484c3.1,0,5.7-0.7,7.9-2.2
			c2.1-1.5,3.8-3.4,5.2-5.8c1.3-2.4,2.3-5,2.8-7.7c0.6-2.8,0.8-5.4,0.8-8c0-2.6-0.3-5.3-0.8-8.1c-0.5-2.8-1.4-5.3-2.6-7.7
			c-1.2-2.4-2.9-4.3-5-5.8c-2.1-1.5-4.7-2.2-7.9-2.2c-3.1,0-5.7,0.7-7.9,2.2c-2.1,1.5-3.8,3.4-5.1,5.8c-1.3,2.4-2.2,5-2.8,7.7
			c-0.6,2.8-0.8,5.4-0.8,8c0,2.5,0.3,5.1,0.8,7.9c0.6,2.8,1.5,5.3,2.7,7.7c1.2,2.4,2.9,4.4,5,5.9C1654.5-484.7,1657-484,1660-484z"
			/>
	</g>
</g>
<rect x="761" y="-584" class="st1" width="488" height="166"/>
<rect x="761" y="-407" class="st1" width="488" height="166"/>
<path d="M1537.5-537.5c3.7,1.3,7.3,3.7,11,5v55h-10c-0.2-24.9-0.1-35.9,0-41c0-0.8,0.1-3.5,0-7
	C1538.3-530.6,1537.9-534.7,1537.5-537.5z"/>
<path d="M1560.5-475.5c0,5.5-4.9,11-11,11s-11-5.5-11-11s4.9-9,11-9S1560.5-481.5,1560.5-475.5z"/>
<ellipse class="st2" cx="1549.8" cy="-476.5" rx="11.2" ry="8"/>
<path d="M1548.5-532c-0.2,4.1-4.3-3.5-9.5-3.5s-9.5,7.6-9.5,3.5s4.3-7.5,9.5-7.5C1544.3-539.5,1548.7-536.2,1548.5-532z"/>
<g>
	<g>
		<path d="M1306.7-709.1c3,0,6.1,0.5,9.2,1.5c3.1,1,6.1,2.5,9.1,4.6l-5.4,7c-2.2-1.8-4.4-3.2-6.6-4c-2.2-0.8-4.2-1.3-6.2-1.3
			c-2.4,0-4.6,0.6-6.7,1.7c-2,1.1-3.8,2.7-5.4,4.7s-2.8,4.5-3.6,7.4c-0.8,2.9-1.3,6.1-1.3,9.6c0,7.5,1.7,13.3,5.1,17.3
			c3.4,4,7.7,6,12.9,6c2.3,0,4.6-0.4,6.8-1.1c2.2-0.7,4.5-1.8,6.9-3.1l3.2,6.4c-3.2,2-6.3,3.5-9.2,4.5c-3,1-6.3,1.5-10,1.5
			c-5.1,0-9.7-1.3-13.6-3.9c-4-2.6-7.1-6.3-9.4-11.1c-2.3-4.8-3.4-10.4-3.4-16.9c0-6.2,1.3-11.7,3.8-16.3c2.5-4.6,5.9-8.2,10.1-10.7
			C1297.2-707.8,1301.8-709.1,1306.7-709.1z"/>
		<path d="M1348.6-707.6v36.7c0,2.3,0.2,4.7,0.6,7.1c0.4,2.4,1.3,4.5,2.7,6.1c1.4,1.6,3.6,2.4,6.7,2.4c3,0,5.7-0.6,8.1-1.9
			c2.4-1.3,4.4-3.1,5.9-5.3c1.5-2.3,2.3-4.9,2.3-8v-30c0-0.1-0.1-0.7-0.4-1.7c-0.2-1.1-0.5-2.2-0.7-3.4c-0.2-1.2-0.4-1.8-0.5-2h11.5
			v48c0,1.5,0.3,2.6,0.8,3.4c0.5,0.7,1.3,1.1,2.5,1.1c1.1,0,2.6-0.4,4.6-1.1l2.2,6.5c-1.6,0.9-3.4,1.6-5.3,2.1
			c-2,0.5-3.8,0.8-5.6,0.8c-2.1,0-3.9-0.6-5.5-1.8c-1.6-1.2-2.6-3.3-3.1-6.4c-2.3,2.4-5.1,4.4-8.3,6.1c-3.2,1.7-6.6,2.5-10,2.5
			c-4.4,0-7.9-0.9-10.6-2.8c-2.7-1.8-4.6-4.3-5.8-7.5c-1.2-3.2-1.8-6.8-1.8-11v-32.9l-1.6-7.1H1348.6z"/>
		<path d="M1413.2-708.5c0.6,1.3,1.1,2.6,1.5,4c0.4,1.4,0.6,2.8,0.8,4.1c2.1-2.6,4.7-4.7,7.7-6.3c3.1-1.6,6.3-2.3,9.8-2.3
			c4.2,0,7.9,0.9,11,2.6c3.1,1.8,5.7,4.1,7.7,7.1c2,3,3.6,6.3,4.6,10c1,3.6,1.5,7.3,1.5,11.1c0,5.4-1,10.6-2.9,15.4
			c-2,4.8-4.9,8.8-8.9,11.8s-8.9,4.5-14.9,4.5c-2.7,0-5.4-0.4-8.1-1.3c-2.7-0.9-5-2.2-7-4.1c0.2,1.1,0.2,2.2,0.2,3.4
			c0,1.1,0,2,0,2.6v16.7l1.7,7.1h-11.5v-68.2c0-1.7-0.1-3.6-0.4-5.6c-0.2-2.1-0.6-4.1-1.1-6.1c-0.5-2-1.3-3.7-2.2-5.2L1413.2-708.5z
			 M1430-700.2c-2.7,0-5.3,0.8-7.7,2.5c-2.4,1.6-4.4,3.5-6.1,5.5v20.2c0,3.1,0.5,6,1.5,8.7c1,2.7,2.6,4.8,4.7,6.4
			c2.2,1.6,5,2.4,8.4,2.4c3.1,0,5.7-0.7,7.9-2c2.1-1.4,3.8-3.2,5.1-5.4c1.3-2.2,2.2-4.7,2.7-7.4c0.5-2.7,0.8-5.3,0.8-8
			c0-2.8-0.3-5.5-0.9-8.2c-0.6-2.7-1.6-5.1-2.9-7.3c-1.4-2.2-3.1-4-5.3-5.3C1435.9-699.5,1433.2-700.2,1430-700.2z"/>
		<path d="M1481.1-708.5c0.6,1.3,1.1,2.6,1.5,4c0.4,1.4,0.6,2.8,0.8,4.1c2.1-2.6,4.7-4.7,7.7-6.3c3.1-1.6,6.3-2.3,9.8-2.3
			c4.2,0,7.9,0.9,11,2.6c3.1,1.8,5.7,4.1,7.7,7.1s3.6,6.3,4.6,10c1,3.6,1.5,7.3,1.5,11.1c0,5.4-1,10.6-2.9,15.4
			c-2,4.8-4.9,8.8-8.9,11.8c-4,3-8.9,4.5-14.9,4.5c-2.7,0-5.4-0.4-8.1-1.3c-2.7-0.9-5-2.2-7-4.1c0.2,1.1,0.2,2.2,0.2,3.4
			c0,1.1,0,2,0,2.6v16.7l1.7,7.1h-11.5v-68.2c0-1.7-0.1-3.6-0.4-5.6c-0.2-2.1-0.6-4.1-1.1-6.1c-0.5-2-1.3-3.7-2.2-5.2L1481.1-708.5z
			 M1497.9-700.2c-2.7,0-5.3,0.8-7.7,2.5c-2.4,1.6-4.4,3.5-6.1,5.5v20.2c0,3.1,0.5,6,1.5,8.7c1,2.7,2.6,4.8,4.7,6.4
			c2.2,1.6,5,2.4,8.4,2.4c3.1,0,5.7-0.7,7.9-2c2.1-1.4,3.8-3.2,5.1-5.4c1.3-2.2,2.2-4.7,2.7-7.4c0.5-2.7,0.8-5.3,0.8-8
			c0-2.8-0.3-5.5-0.9-8.2c-0.6-2.7-1.6-5.1-2.9-7.3c-1.4-2.2-3.1-4-5.3-5.3C1503.8-699.5,1501.1-700.2,1497.9-700.2z"/>
		<path d="M1577.8-708.6c0.6,1.4,1,2.8,1.4,4.2c0.4,1.4,0.7,2.9,0.8,4.3c2.4-2.4,5.2-4.5,8.5-6.3c3.3-1.8,6.6-2.7,10.1-2.7
			c4.4,0,7.9,0.9,10.6,2.8c2.7,1.8,4.6,4.3,5.8,7.5c1.2,3.2,1.8,6.8,1.8,11v39.8h-9.8v-36.6c0-2.5-0.2-4.9-0.5-7.3s-1.2-4.4-2.6-5.9
			c-1.4-1.6-3.7-2.3-6.9-2.3c-1.9,0-3.9,0.4-5.9,1.1c-2,0.8-3.9,1.7-5.6,2.9c-1.8,1.2-3.4,2.5-4.8,3.8v44.3h-9.8v-42.2
			c0-1.6-0.1-3.5-0.4-5.6c-0.2-2.1-0.6-4.2-1.2-6.2c-0.6-2-1.4-3.7-2.4-5.1L1577.8-708.6z"/>
		<path d="M1659.9-646.4c-5.8,0-10.7-1.5-14.7-4.4c-4-2.9-6.9-6.7-8.9-11.5c-2-4.7-2.9-9.8-2.9-15.1c0-5.4,1.1-10.5,3.2-15.3
			c2.1-4.8,5.2-8.8,9.3-11.8c4.1-3,9-4.6,14.8-4.6c5.9,0,10.9,1.4,14.8,4.3c4,2.9,6.9,6.7,8.9,11.4c2,4.7,2.9,9.8,2.9,15.2
			c0,5.4-1,10.6-3.1,15.4c-2.1,4.8-5.2,8.8-9.2,11.8C1670.8-647.9,1665.8-646.4,1659.9-646.4z M1660-654c3.1,0,5.7-0.7,7.9-2.2
			c2.1-1.5,3.8-3.4,5.2-5.8c1.3-2.4,2.3-5,2.8-7.7c0.6-2.8,0.8-5.4,0.8-8c0-2.6-0.3-5.3-0.8-8.1c-0.5-2.8-1.4-5.3-2.6-7.7
			c-1.2-2.4-2.9-4.3-5-5.8c-2.1-1.5-4.7-2.2-7.9-2.2c-3.1,0-5.7,0.7-7.9,2.2c-2.1,1.5-3.8,3.4-5.1,5.8c-1.3,2.4-2.2,5-2.8,7.7
			c-0.6,2.8-0.8,5.4-0.8,8c0,2.5,0.3,5.1,0.8,7.9c0.6,2.8,1.5,5.3,2.7,7.7c1.2,2.4,2.9,4.4,5,5.9C1654.5-654.7,1657-654,1660-654z"
			/>
	</g>
</g>
<polygon points="1538.5,-710.5 1548.5,-706.5 1548.5,-647.5 1538.5,-647.5 "/>
<path class="st3" d="M1560.5-645.5c0,5.5-4.9,11-11,11s-11-5.5-11-11s4.9-9,11-9S1560.5-651.5,1560.5-645.5z"/>
<path class="st4" d="M1537.5-709.5c-4.4,0-8,9.1-8,4.2s3.6-7.2,8-7.2"/>
<ellipse cx="1549.5" cy="-646.5" rx="11" ry="8"/>
<path d="M1548.5-706c0,4.1-4.3-3.5-9.5-3.5s-9.5,7.6-9.5,3.5s4.3-7.5,9.5-7.5S1548.5-710.1,1548.5-706z"/>
<path class="st5" d="M1538.5-518.5"/>
<path d="M1554.5-530.5"/>
<g>
	<g>
		<path class="st0" d="M823.7-352.1c3,0,6.1,0.5,9.2,1.5c3.1,1,6.1,2.5,9.1,4.6l-5.4,7c-2.2-1.8-4.4-3.2-6.6-4
			c-2.2-0.8-4.2-1.3-6.2-1.3c-2.4,0-4.6,0.6-6.7,1.7c-2,1.1-3.8,2.7-5.4,4.7c-1.6,2-2.8,4.5-3.6,7.4c-0.8,2.9-1.3,6.1-1.3,9.6
			c0,7.5,1.7,13.3,5.1,17.3c3.4,4,7.7,6,12.9,6c2.3,0,4.6-0.4,6.8-1.1c2.2-0.7,4.5-1.8,6.9-3.1l3.2,6.4c-3.2,2-6.3,3.5-9.2,4.5
			c-3,1-6.3,1.5-10,1.5c-5.1,0-9.7-1.3-13.6-3.9s-7.1-6.3-9.4-11.1c-2.3-4.8-3.4-10.4-3.4-16.9c0-6.2,1.3-11.7,3.8-16.3
			c2.5-4.6,5.9-8.2,10.1-10.7C814.2-350.8,818.8-352.1,823.7-352.1z"/>
		<path class="st0" d="M865.6-350.6v36.7c0,2.3,0.2,4.7,0.6,7.1c0.4,2.4,1.3,4.5,2.7,6.1c1.4,1.6,3.6,2.4,6.7,2.4
			c3,0,5.7-0.6,8.1-1.9c2.4-1.3,4.4-3.1,5.9-5.3c1.5-2.3,2.3-4.9,2.3-8v-30c0-0.1-0.1-0.7-0.4-1.7c-0.2-1.1-0.5-2.2-0.7-3.4
			c-0.2-1.2-0.4-1.8-0.5-2h11.5v48c0,1.5,0.3,2.6,0.8,3.4c0.5,0.7,1.3,1.1,2.5,1.1c1.1,0,2.6-0.4,4.6-1.1l2.2,6.5
			c-1.6,0.9-3.4,1.6-5.3,2.1c-2,0.5-3.8,0.8-5.6,0.8c-2.1,0-3.9-0.6-5.5-1.8c-1.6-1.2-2.6-3.3-3.1-6.4c-2.3,2.4-5.1,4.4-8.3,6.1
			c-3.2,1.7-6.6,2.5-10,2.5c-4.4,0-7.9-0.9-10.6-2.8c-2.7-1.8-4.6-4.3-5.8-7.5c-1.2-3.2-1.8-6.8-1.8-11v-32.9l-1.6-7.1H865.6z"/>
		<path class="st0" d="M930.2-351.5c0.6,1.3,1.1,2.6,1.5,4c0.4,1.4,0.6,2.8,0.8,4.1c2.1-2.6,4.7-4.7,7.7-6.3
			c3.1-1.6,6.3-2.3,9.8-2.3c4.2,0,7.9,0.9,11,2.6s5.7,4.1,7.7,7.1s3.6,6.3,4.6,10c1,3.6,1.5,7.3,1.5,11.1c0,5.4-1,10.6-2.9,15.4
			c-2,4.8-4.9,8.8-8.9,11.8s-8.9,4.5-14.9,4.5c-2.7,0-5.4-0.4-8.1-1.3c-2.7-0.9-5-2.2-7-4.1c0.2,1.1,0.2,2.2,0.2,3.4
			c0,1.1,0,2,0,2.6v16.7l1.7,7.1h-11.5v-68.2c0-1.7-0.1-3.6-0.4-5.6c-0.2-2.1-0.6-4.1-1.1-6.1c-0.5-2-1.3-3.7-2.2-5.2L930.2-351.5z
			 M947-343.2c-2.7,0-5.3,0.8-7.7,2.5c-2.4,1.6-4.4,3.5-6.1,5.5v20.2c0,3.1,0.5,6,1.5,8.7c1,2.7,2.6,4.8,4.7,6.4
			c2.2,1.6,5,2.4,8.4,2.4c3.1,0,5.7-0.7,7.9-2c2.1-1.4,3.8-3.2,5.1-5.4c1.3-2.2,2.2-4.7,2.7-7.4c0.5-2.7,0.8-5.3,0.8-8
			c0-2.8-0.3-5.5-0.9-8.2c-0.6-2.7-1.6-5.1-2.9-7.3c-1.4-2.2-3.1-4-5.3-5.3C952.9-342.5,950.2-343.2,947-343.2z"/>
		<path class="st0" d="M998.1-351.5c0.6,1.3,1.1,2.6,1.5,4c0.4,1.4,0.6,2.8,0.8,4.1c2.1-2.6,4.7-4.7,7.7-6.3
			c3.1-1.6,6.3-2.3,9.8-2.3c4.2,0,7.9,0.9,11,2.6s5.7,4.1,7.7,7.1s3.6,6.3,4.6,10c1,3.6,1.5,7.3,1.5,11.1c0,5.4-1,10.6-2.9,15.4
			c-2,4.8-4.9,8.8-8.9,11.8s-8.9,4.5-14.9,4.5c-2.7,0-5.4-0.4-8.1-1.3c-2.7-0.9-5-2.2-7-4.1c0.2,1.1,0.2,2.2,0.2,3.4
			c0,1.1,0,2,0,2.6v16.7l1.7,7.1h-11.5v-68.2c0-1.7-0.1-3.6-0.4-5.6c-0.2-2.1-0.6-4.1-1.1-6.1c-0.5-2-1.3-3.7-2.2-5.2L998.1-351.5z
			 M1014.9-343.2c-2.7,0-5.3,0.8-7.7,2.5c-2.4,1.6-4.4,3.5-6.1,5.5v20.2c0,3.1,0.5,6,1.5,8.7c1,2.7,2.6,4.8,4.7,6.4
			c2.2,1.6,5,2.4,8.4,2.4c3.1,0,5.7-0.7,7.9-2c2.1-1.4,3.8-3.2,5.1-5.4c1.3-2.2,2.2-4.7,2.7-7.4c0.5-2.7,0.8-5.3,0.8-8
			c0-2.8-0.3-5.5-0.9-8.2c-0.6-2.7-1.6-5.1-2.9-7.3c-1.4-2.2-3.1-4-5.3-5.3C1020.8-342.5,1018.1-343.2,1014.9-343.2z"/>
		<path class="st0" d="M1094.8-351.6c0.6,1.4,1,2.8,1.4,4.2c0.4,1.4,0.7,2.9,0.8,4.3c2.4-2.4,5.2-4.5,8.5-6.3
			c3.3-1.8,6.6-2.7,10.1-2.7c4.4,0,7.9,0.9,10.6,2.8c2.7,1.8,4.6,4.3,5.8,7.5c1.2,3.2,1.8,6.8,1.8,11v39.8h-9.8v-36.6
			c0-2.5-0.2-4.9-0.5-7.3c-0.4-2.4-1.2-4.4-2.6-5.9c-1.4-1.6-3.7-2.3-6.9-2.3c-1.9,0-3.9,0.4-5.9,1.1c-2,0.8-3.9,1.7-5.6,2.9
			c-1.8,1.2-3.4,2.5-4.8,3.8v44.3h-9.8v-42.2c0-1.6-0.1-3.5-0.4-5.6c-0.2-2.1-0.6-4.2-1.2-6.2c-0.6-2-1.4-3.7-2.4-5.1L1094.8-351.6z
			"/>
		<path class="st0" d="M1176.9-289.4c-5.8,0-10.7-1.5-14.7-4.4c-4-2.9-6.9-6.7-8.9-11.5c-2-4.7-2.9-9.8-2.9-15.1s1.1-10.5,3.2-15.3
			c2.1-4.8,5.2-8.8,9.3-11.8c4.1-3,9-4.6,14.8-4.6c5.9,0,10.9,1.4,14.8,4.3s6.9,6.7,8.9,11.4c2,4.7,2.9,9.8,2.9,15.2
			c0,5.4-1,10.6-3.1,15.4c-2.1,4.8-5.2,8.8-9.2,11.8C1187.8-290.9,1182.8-289.4,1176.9-289.4z M1177-297c3.1,0,5.7-0.7,7.9-2.2
			c2.1-1.5,3.8-3.4,5.2-5.8s2.3-5,2.8-7.7c0.6-2.8,0.8-5.4,0.8-8c0-2.6-0.3-5.3-0.8-8.1c-0.5-2.8-1.4-5.3-2.6-7.7
			c-1.2-2.4-2.9-4.3-5-5.8c-2.1-1.5-4.7-2.2-7.9-2.2s-5.7,0.7-7.9,2.2c-2.1,1.5-3.8,3.4-5.1,5.8c-1.3,2.4-2.2,5-2.8,7.7
			c-0.6,2.8-0.8,5.4-0.8,8c0,2.5,0.3,5.1,0.8,7.9c0.6,2.8,1.5,5.3,2.7,7.7c1.2,2.4,2.9,4.4,5,5.9C1171.5-297.7,1174-297,1177-297z"
			/>
	</g>
</g>
<path class="st0" d="M1054.5-350.5c3.7,1.3,7.3,3.7,11,5v55h-10c-0.2-24.9-0.1-35.9,0-41c0-0.8,0.1-3.5,0-7
	C1055.3-343.6,1054.9-347.7,1054.5-350.5z"/>
<path class="st0" d="M1077.5-290.4c0,5-4.9,9.9-11,9.9s-11-4.9-11-9.9c0-5,4.9-8.1,11-8.1S1077.5-295.8,1077.5-290.4z"/>
<ellipse class="st1" cx="1066.8" cy="-293.6" rx="10.2" ry="3.9"/>
<path class="st0" d="M1065.5-345c-0.2,4.1-4.3-3.5-9.5-3.5s-9.5,7.6-9.5,3.5s4.3-7.5,9.5-7.5C1061.3-352.5,1065.7-349.2,1065.5-345z
	"/>
<path class="st0" d="M1055.5-331.5"/>
<path class="st0" d="M1071.5-343.5"/>
<g>
	<g>
		<path class="st0" d="M818.7-539.1c3,0,6.1,0.5,9.2,1.5c3.1,1,6.1,2.5,9.1,4.6l-5.4,7c-2.2-1.8-4.4-3.2-6.6-4
			c-2.2-0.8-4.2-1.3-6.2-1.3c-2.4,0-4.6,0.6-6.7,1.7c-2,1.1-3.8,2.7-5.4,4.7s-2.8,4.5-3.6,7.4c-0.8,2.9-1.3,6.1-1.3,9.6
			c0,7.5,1.7,13.3,5.1,17.3c3.4,4,7.7,6,12.9,6c2.3,0,4.6-0.4,6.8-1.1c2.2-0.7,4.5-1.8,6.9-3.1l3.2,6.4c-3.2,2-6.3,3.5-9.2,4.5
			c-3,1-6.3,1.5-10,1.5c-5.1,0-9.7-1.3-13.6-3.9c-4-2.6-7.1-6.3-9.4-11.1c-2.3-4.8-3.4-10.4-3.4-16.9c0-6.2,1.3-11.7,3.8-16.3
			c2.5-4.6,5.9-8.2,10.1-10.7C809.2-537.8,813.8-539.1,818.7-539.1z"/>
		<path class="st0" d="M860.6-537.6v36.7c0,2.3,0.2,4.7,0.6,7.1c0.4,2.4,1.3,4.5,2.7,6.1c1.4,1.6,3.6,2.4,6.7,2.4
			c3,0,5.7-0.6,8.1-1.9c2.4-1.3,4.4-3.1,5.9-5.3c1.5-2.3,2.3-4.9,2.3-8v-30c0-0.1-0.1-0.7-0.4-1.7c-0.2-1.1-0.5-2.2-0.7-3.4
			c-0.2-1.2-0.4-1.8-0.5-2h11.5v48c0,1.5,0.3,2.6,0.8,3.4c0.5,0.7,1.3,1.1,2.5,1.1c1.1,0,2.6-0.4,4.6-1.1l2.2,6.5
			c-1.6,0.9-3.4,1.6-5.3,2.1c-2,0.5-3.8,0.8-5.6,0.8c-2.1,0-3.9-0.6-5.5-1.8c-1.6-1.2-2.6-3.3-3.1-6.4c-2.3,2.4-5.1,4.4-8.3,6.1
			c-3.2,1.7-6.6,2.5-10,2.5c-4.4,0-7.9-0.9-10.6-2.8c-2.7-1.8-4.6-4.3-5.8-7.5c-1.2-3.2-1.8-6.8-1.8-11v-32.9l-1.6-7.1H860.6z"/>
		<path class="st0" d="M925.2-538.5c0.6,1.3,1.1,2.6,1.5,4c0.4,1.4,0.6,2.8,0.8,4.1c2.1-2.6,4.7-4.7,7.7-6.3
			c3.1-1.6,6.3-2.3,9.8-2.3c4.2,0,7.9,0.9,11,2.6c3.1,1.8,5.7,4.1,7.7,7.1s3.6,6.3,4.6,10c1,3.6,1.5,7.3,1.5,11.1
			c0,5.4-1,10.6-2.9,15.4c-2,4.8-4.9,8.8-8.9,11.8s-8.9,4.5-14.9,4.5c-2.7,0-5.4-0.4-8.1-1.3c-2.7-0.9-5-2.2-7-4.1
			c0.2,1.1,0.2,2.2,0.2,3.4c0,1.1,0,2,0,2.6v16.7l1.7,7.1h-11.5v-68.2c0-1.7-0.1-3.6-0.4-5.6c-0.2-2.1-0.6-4.1-1.1-6.1
			c-0.5-2-1.3-3.7-2.2-5.2L925.2-538.5z M942-530.2c-2.7,0-5.3,0.8-7.7,2.5c-2.4,1.6-4.4,3.5-6.1,5.5v20.2c0,3.1,0.5,6,1.5,8.7
			c1,2.7,2.6,4.8,4.7,6.4c2.2,1.6,5,2.4,8.4,2.4c3.1,0,5.7-0.7,7.9-2c2.1-1.4,3.8-3.2,5.1-5.4c1.3-2.2,2.2-4.7,2.7-7.4
			c0.5-2.7,0.8-5.3,0.8-8c0-2.8-0.3-5.5-0.9-8.2c-0.6-2.7-1.6-5.1-2.9-7.3c-1.4-2.2-3.1-4-5.3-5.3
			C947.9-529.5,945.2-530.2,942-530.2z"/>
		<path class="st0" d="M993.1-538.5c0.6,1.3,1.1,2.6,1.5,4c0.4,1.4,0.6,2.8,0.8,4.1c2.1-2.6,4.7-4.7,7.7-6.3
			c3.1-1.6,6.3-2.3,9.8-2.3c4.2,0,7.9,0.9,11,2.6c3.1,1.8,5.7,4.1,7.7,7.1s3.6,6.3,4.6,10c1,3.6,1.5,7.3,1.5,11.1
			c0,5.4-1,10.6-2.9,15.4c-2,4.8-4.9,8.8-8.9,11.8s-8.9,4.5-14.9,4.5c-2.7,0-5.4-0.4-8.1-1.3c-2.7-0.9-5-2.2-7-4.1
			c0.2,1.1,0.2,2.2,0.2,3.4c0,1.1,0,2,0,2.6v16.7l1.7,7.1h-11.5v-68.2c0-1.7-0.1-3.6-0.4-5.6c-0.2-2.1-0.6-4.1-1.1-6.1
			c-0.5-2-1.3-3.7-2.2-5.2L993.1-538.5z M1009.9-530.2c-2.7,0-5.3,0.8-7.7,2.5c-2.4,1.6-4.4,3.5-6.1,5.5v20.2c0,3.1,0.5,6,1.5,8.7
			c1,2.7,2.6,4.8,4.7,6.4c2.2,1.6,5,2.4,8.4,2.4c3.1,0,5.7-0.7,7.9-2c2.1-1.4,3.8-3.2,5.1-5.4c1.3-2.2,2.2-4.7,2.7-7.4
			c0.5-2.7,0.8-5.3,0.8-8c0-2.8-0.3-5.5-0.9-8.2c-0.6-2.7-1.6-5.1-2.9-7.3c-1.4-2.2-3.1-4-5.3-5.3
			C1015.8-529.5,1013.1-530.2,1009.9-530.2z"/>
		<path class="st0" d="M1089.8-538.6c0.6,1.4,1,2.8,1.4,4.2c0.4,1.4,0.7,2.9,0.8,4.3c2.4-2.4,5.2-4.5,8.5-6.3
			c3.3-1.8,6.6-2.7,10.1-2.7c4.4,0,7.9,0.9,10.6,2.8c2.7,1.8,4.6,4.3,5.8,7.5c1.2,3.2,1.8,6.8,1.8,11v39.8h-9.8v-36.6
			c0-2.5-0.2-4.9-0.5-7.3c-0.4-2.4-1.2-4.4-2.6-5.9c-1.4-1.6-3.7-2.3-6.9-2.3c-1.9,0-3.9,0.4-5.9,1.1c-2,0.8-3.9,1.7-5.6,2.9
			c-1.8,1.2-3.4,2.5-4.8,3.8v44.3h-9.8v-42.2c0-1.6-0.1-3.5-0.4-5.6c-0.2-2.1-0.6-4.2-1.2-6.2c-0.6-2-1.4-3.7-2.4-5.1L1089.8-538.6z
			"/>
		<path class="st0" d="M1171.9-476.4c-5.8,0-10.7-1.5-14.7-4.4s-6.9-6.7-8.9-11.5c-2-4.7-2.9-9.8-2.9-15.1c0-5.4,1.1-10.5,3.2-15.3
			c2.1-4.8,5.2-8.8,9.3-11.8c4.1-3,9-4.6,14.8-4.6c5.9,0,10.9,1.4,14.8,4.3c4,2.9,6.9,6.7,8.9,11.4c2,4.7,2.9,9.8,2.9,15.2
			c0,5.4-1,10.6-3.1,15.4c-2.1,4.8-5.2,8.8-9.2,11.8C1182.8-477.9,1177.8-476.4,1171.9-476.4z M1172-484c3.1,0,5.7-0.7,7.9-2.2
			c2.1-1.5,3.8-3.4,5.2-5.8s2.3-5,2.8-7.7c0.6-2.8,0.8-5.4,0.8-8c0-2.6-0.3-5.3-0.8-8.1c-0.5-2.8-1.4-5.3-2.6-7.7
			c-1.2-2.4-2.9-4.3-5-5.8c-2.1-1.5-4.7-2.2-7.9-2.2s-5.7,0.7-7.9,2.2c-2.1,1.5-3.8,3.4-5.1,5.8c-1.3,2.4-2.2,5-2.8,7.7
			c-0.6,2.8-0.8,5.4-0.8,8c0,2.5,0.3,5.1,0.8,7.9c0.6,2.8,1.5,5.3,2.7,7.7c1.2,2.4,2.9,4.4,5,5.9C1166.5-484.7,1169-484,1172-484z"
			/>
	</g>
</g>
<path class="st0" d="M1049.5-537.5c3.7,1.3,7.3,3.7,11,5v55h-10c-0.2-24.9-0.1-35.9,0-41c0-0.8,0.1-3.5,0-7
	C1050.3-530.6,1049.9-534.7,1049.5-537.5z"/>
<path class="st0" d="M1072.5-475.5c0,5.5-4.9,11-11,11s-11-5.5-11-11s4.9-9,11-9S1072.5-481.5,1072.5-475.5z"/>
<ellipse class="st1" cx="1061.8" cy="-476.5" rx="11.2" ry="8"/>
<path class="st0" d="M1060.5-532c-0.2,4.1-4.3-3.5-9.5-3.5s-9.5,7.6-9.5,3.5s4.3-7.5,9.5-7.5C1056.3-539.5,1060.7-536.2,1060.5-532z
	"/>
<path class="st5" d="M1050.5-518.5"/>
<path d="M1066.5-530.5"/>
<g>
	<g>
		<path d="M1971.7,360.9c3,0,6.1,0.5,9.2,1.5c3.1,1,6.1,2.5,9.1,4.6l-5.4,7c-2.2-1.8-4.4-3.2-6.6-4c-2.2-0.8-4.2-1.3-6.2-1.3
			c-2.4,0-4.6,0.6-6.7,1.7c-2,1.1-3.8,2.7-5.4,4.7c-1.6,2-2.8,4.5-3.6,7.4c-0.8,2.9-1.3,6.1-1.3,9.6c0,7.5,1.7,13.3,5.1,17.3
			c3.4,4,7.7,6,12.9,6c2.3,0,4.6-0.4,6.8-1.1c2.2-0.7,4.5-1.8,6.9-3.1l3.2,6.4c-3.2,2-6.3,3.5-9.2,4.5c-3,1-6.3,1.5-10,1.5
			c-5.1,0-9.7-1.3-13.6-3.9c-4-2.6-7.1-6.3-9.4-11.1c-2.3-4.8-3.4-10.4-3.4-16.9c0-6.2,1.3-11.7,3.8-16.3c2.5-4.6,5.9-8.2,10.1-10.7
			C1962.2,362.2,1966.8,360.9,1971.7,360.9z"/>
		<path d="M2013.6,362.4v36.7c0,2.3,0.2,4.7,0.6,7.1c0.4,2.4,1.3,4.5,2.7,6.1c1.4,1.6,3.6,2.4,6.7,2.4c3,0,5.7-0.6,8.1-1.9
			c2.4-1.3,4.4-3.1,5.9-5.3c1.5-2.3,2.3-4.9,2.3-8v-30c0-0.1-0.1-0.7-0.4-1.7s-0.5-2.2-0.7-3.4c-0.2-1.2-0.4-1.8-0.5-2h11.5v48
			c0,1.5,0.3,2.6,0.8,3.4c0.5,0.7,1.3,1.1,2.5,1.1c1.1,0,2.6-0.4,4.6-1.1l2.2,6.5c-1.6,0.9-3.4,1.6-5.3,2.1c-2,0.5-3.8,0.8-5.6,0.8
			c-2.1,0-3.9-0.6-5.5-1.8c-1.6-1.2-2.6-3.3-3.1-6.4c-2.3,2.4-5.1,4.4-8.3,6.1c-3.2,1.7-6.6,2.5-10,2.5c-4.4,0-7.9-0.9-10.6-2.8
			c-2.7-1.8-4.6-4.3-5.8-7.5c-1.2-3.2-1.8-6.8-1.8-11v-32.9l-1.6-7.1H2013.6z"/>
		<path d="M2078.2,361.5c0.6,1.3,1.1,2.6,1.5,4c0.4,1.4,0.6,2.8,0.8,4.1c2.1-2.6,4.7-4.7,7.7-6.3c3.1-1.6,6.3-2.3,9.8-2.3
			c4.2,0,7.9,0.9,11,2.6c3.1,1.8,5.7,4.1,7.7,7.1c2,3,3.6,6.3,4.6,10c1,3.6,1.5,7.3,1.5,11.1c0,5.4-1,10.6-2.9,15.4
			c-2,4.8-4.9,8.8-8.9,11.8s-8.9,4.5-14.9,4.5c-2.7,0-5.4-0.4-8.1-1.3c-2.7-0.9-5-2.2-7-4.1c0.2,1.1,0.2,2.2,0.2,3.4
			c0,1.1,0,2,0,2.6v16.7l1.7,7.1h-11.5v-68.2c0-1.7-0.1-3.6-0.4-5.6c-0.2-2.1-0.6-4.1-1.1-6.1c-0.5-2-1.3-3.7-2.2-5.2L2078.2,361.5z
			 M2095,369.8c-2.7,0-5.3,0.8-7.7,2.5c-2.4,1.6-4.4,3.5-6.1,5.5v20.2c0,3.1,0.5,6,1.5,8.7c1,2.7,2.6,4.8,4.7,6.4
			c2.2,1.6,5,2.4,8.4,2.4c3.1,0,5.7-0.7,7.9-2c2.1-1.4,3.8-3.2,5.1-5.4c1.3-2.2,2.2-4.7,2.7-7.4c0.5-2.7,0.8-5.3,0.8-8
			c0-2.8-0.3-5.5-0.9-8.2c-0.6-2.7-1.6-5.1-2.9-7.3c-1.4-2.2-3.1-4-5.3-5.3C2100.9,370.5,2098.2,369.8,2095,369.8z"/>
		<path d="M2145.3,361.5c0.6,1.3,1.1,2.6,1.5,4c0.4,1.4,0.6,2.8,0.8,4.1c2.1-2.6,4.7-4.7,7.7-6.3c3.1-1.6,6.3-2.3,9.8-2.3
			c4.2,0,7.9,0.9,11,2.6s5.7,4.1,7.7,7.1s3.6,6.3,4.6,10c1,3.6,1.5,7.3,1.5,11.1c0,5.4-1,10.6-2.9,15.4c-2,4.8-4.9,8.8-8.9,11.8
			c-4,3-8.9,4.5-14.9,4.5c-2.7,0-5.4-0.4-8.1-1.3c-2.7-0.9-5-2.2-7-4.1c0.2,1.1,0.2,2.2,0.2,3.4c0,1.1,0,2,0,2.6v16.7l1.7,7.1h-11.5
			v-68.2c0-1.7-0.1-3.6-0.4-5.6c-0.2-2.1-0.6-4.1-1.1-6.1c-0.5-2-1.3-3.7-2.2-5.2L2145.3,361.5z M2162.1,369.8
			c-2.7,0-5.3,0.8-7.7,2.5c-2.4,1.6-4.4,3.5-6.1,5.5v20.2c0,3.1,0.5,6,1.5,8.7c1,2.7,2.6,4.8,4.7,6.4c2.2,1.6,5,2.4,8.4,2.4
			c3.1,0,5.7-0.7,7.9-2c2.1-1.4,3.8-3.2,5.1-5.4c1.3-2.2,2.2-4.7,2.7-7.4c0.5-2.7,0.8-5.3,0.8-8c0-2.8-0.3-5.5-0.9-8.2
			c-0.6-2.7-1.6-5.1-2.9-7.3c-1.4-2.2-3.1-4-5.3-5.3C2168,370.5,2165.2,369.8,2162.1,369.8z"/>
		<path d="M2242,361.4c0.6,1.4,1,2.8,1.4,4.2c0.4,1.4,0.7,2.9,0.8,4.3c2.4-2.4,5.2-4.5,8.5-6.3c3.3-1.8,6.6-2.7,10.1-2.7
			c4.4,0,7.9,0.9,10.6,2.8c2.7,1.8,4.6,4.3,5.8,7.5c1.2,3.2,1.8,6.8,1.8,11V422h-9.8v-36.6c0-2.5-0.2-4.9-0.5-7.3
			c-0.4-2.4-1.2-4.4-2.6-5.9c-1.4-1.6-3.7-2.3-6.9-2.3c-1.9,0-3.9,0.4-5.9,1.1c-2,0.8-3.9,1.7-5.6,2.9c-1.8,1.2-3.4,2.5-4.8,3.8V422
			h-9.8v-42.2c0-1.6-0.1-3.5-0.4-5.6c-0.2-2.1-0.6-4.2-1.2-6.2c-0.6-2-1.4-3.7-2.4-5.1L2242,361.4z"/>
		<path d="M2324.1,423.6c-5.8,0-10.7-1.5-14.7-4.4c-4-2.9-6.9-6.7-8.9-11.5c-2-4.7-2.9-9.8-2.9-15.1s1.1-10.5,3.2-15.3
			c2.1-4.8,5.2-8.8,9.3-11.8c4.1-3,9-4.6,14.8-4.6c5.9,0,10.9,1.4,14.8,4.3s6.9,6.7,8.9,11.4c2,4.7,2.9,9.8,2.9,15.2
			c0,5.4-1,10.6-3.1,15.4c-2.1,4.8-5.2,8.8-9.2,11.8S2330,423.6,2324.1,423.6z M2324.2,416c3.1,0,5.7-0.7,7.9-2.2
			c2.1-1.5,3.8-3.4,5.2-5.8c1.3-2.4,2.3-5,2.8-7.7c0.6-2.8,0.8-5.4,0.8-8c0-2.6-0.3-5.3-0.8-8.1c-0.5-2.8-1.4-5.3-2.6-7.7
			c-1.2-2.4-2.9-4.3-5-5.8c-2.1-1.5-4.7-2.2-7.9-2.2c-3.1,0-5.7,0.7-7.9,2.2c-2.1,1.5-3.8,3.4-5.1,5.8c-1.3,2.4-2.2,5-2.8,7.7
			c-0.6,2.8-0.8,5.4-0.8,8c0,2.5,0.3,5.1,0.8,7.9c0.6,2.8,1.5,5.3,2.7,7.7c1.2,2.4,2.9,4.4,5,5.9
			C2318.7,415.3,2321.2,416,2324.2,416z"/>
	</g>
	<g>
		<g>
			<path d="M2213.3,375.7V420h-9.8v-42.2c0-1.6-0.1-3.5-0.4-5.6c-0.2-2.1-0.6-4.2-1.2-6.2c-0.6-2-1.4-3.7-2.4-5.1l10.9-1.4
				c0.6,1.4,1,2.8,1.4,4.2c0.4,1.4,0.7,2.9,0.8,4.3L2213.3,375.7z"/>
		</g>
	</g>
	<g>
		<path d="M2225.5,422.6c0,5-4.9,9.9-11,9.9s-11-4.9-11-9.9c0-5,4.9-8.1,11-8.1S2225.5,417.2,2225.5,422.6z"/>
	</g>
	<g>
		<ellipse class="st0" cx="2214.8" cy="419.4" rx="10.2" ry="3.9"/>
		<path d="M2214.8,424.9c-5.8,0-11.8-1.9-11.8-5.4s5.9-5.4,11.8-5.4s11.8,1.9,11.8,5.4S2220.6,424.9,2214.8,424.9z M2214.8,417
			c-5.7,0-8.8,1.8-8.8,2.4s3,2.4,8.8,2.4s8.8-1.8,8.8-2.4S2220.5,417,2214.8,417z"/>
	</g>
	<g>
		<path class="st5" d="M2203.5,381.5"/>
	</g>
	<g>
		<path d="M2219.5,369.5"/>
	</g>
	<g>
		
			<ellipse transform="matrix(0.9755 -0.2198 0.2198 0.9755 -26.5001 494.2596)" class="st0" cx="2207.5" cy="366.2" rx="1.5" ry="2"/>
	</g>
</g>
<g>
	<path d="M80.3,398.1c7.2,0,14.5,1.2,21.9,3.6c7.3,2.4,14.5,6.1,21.6,11l-12.9,16.6c-5.3-4.4-10.6-7.6-15.7-9.6
		c-5.2-2-10.1-3-14.9-3c-5.7,0-11,1.3-15.9,4c-4.9,2.7-9.2,6.4-12.9,11.3c-3.7,4.9-6.6,10.7-8.6,17.6c-2,6.9-3,14.5-3,22.9
		c0,17.9,4,31.7,12.2,41.2c8.1,9.5,18.4,14.3,30.8,14.3c5.5,0,10.9-0.9,16.2-2.6c5.2-1.7,10.7-4.2,16.5-7.4l7.7,15.2
		c-7.6,4.8-15,8.3-22,10.7c-7.1,2.4-15,3.6-23.7,3.6c-12.2,0-23-3.1-32.5-9.3c-9.4-6.2-16.9-15-22.3-26.5
		c-5.4-11.4-8.2-24.9-8.2-40.3c0-14.9,3-27.8,9-38.8c6-11,14-19.5,24-25.5C57.6,401.1,68.5,398.1,80.3,398.1z"/>
	<path d="M180.1,401.5v87.5c0,5.5,0.5,11.2,1.4,17c1,5.8,3.1,10.6,6.4,14.4c3.3,3.8,8.6,5.7,15.9,5.7c7.1,0,13.5-1.5,19.3-4.6
		c5.8-3,10.5-7.3,14.2-12.7c3.6-5.4,5.4-11.8,5.4-19v-71.5c0-0.2-0.3-1.6-0.9-4.1c-0.6-2.6-1.1-5.2-1.7-8c-0.6-2.8-1-4.3-1.1-4.7
		h27.5V516c0,3.6,0.6,6.3,1.9,8c1.2,1.7,3.2,2.6,5.9,2.6c2.7,0,6.3-0.9,10.9-2.6l5.1,15.5c-3.8,2.1-8.1,3.8-12.7,5
		c-4.7,1.2-9.1,1.9-13.3,1.9c-5,0-9.3-1.4-13.2-4.3c-3.8-2.9-6.3-7.9-7.4-15.2c-5.5,5.7-12.2,10.6-19.9,14.6c-7.7,4-15.7,6-23.9,6
		c-10.5,0-18.9-2.2-25.3-6.6c-6.4-4.4-11-10.3-13.9-17.9c-2.9-7.5-4.3-16.3-4.3-26.2v-78.4l-3.7-16.9H180.1z"/>
	<path d="M334.1,399.5c1.5,3.1,2.7,6.2,3.6,9.6c0.9,3.3,1.5,6.6,1.9,9.9c5-6.3,11.1-11.3,18.5-15c7.3-3.7,15.1-5.6,23.3-5.6
		c10.1,0,18.9,2.1,26.3,6.3c7.4,4.2,13.6,9.9,18.5,17c4.9,7.2,8.5,15.1,10.9,23.7c2.4,8.7,3.6,17.5,3.6,26.5c0,13-2.3,25.2-7,36.8
		c-4.7,11.5-11.7,20.9-21.2,28c-9.4,7.2-21.3,10.7-35.6,10.7c-6.5,0-12.9-1.1-19.3-3.1c-6.4-2.1-12-5.3-16.7-9.7
		c0.4,2.7,0.6,5.3,0.6,8c0,2.7,0,4.8,0,6.3v39.8l4,16.9h-27.5V443c0-4-0.3-8.5-0.9-13.4c-0.6-5-1.5-9.8-2.7-14.6
		c-1.2-4.8-3-8.9-5.3-12.3L334.1,399.5z M374.1,419.3c-6.5,0-12.6,2-18.3,5.9c-5.7,3.9-10.6,8.3-14.6,13v48.1
		c0,7.4,1.2,14.4,3.6,20.7c2.4,6.4,6.2,11.5,11.3,15.3c5.2,3.8,11.8,5.7,20,5.7c7.4,0,13.7-1.6,18.7-4.9c5.1-3.2,9.1-7.5,12.2-12.9
		c3-5.3,5.2-11.2,6.4-17.6c1.2-6.4,1.9-12.7,1.9-19c0-6.7-0.7-13.2-2.1-19.6c-1.4-6.4-3.8-12.2-7-17.5c-3.2-5.2-7.5-9.4-12.7-12.6
		C388.2,420.8,381.7,419.3,374.1,419.3z"/>
	<path d="M494,399.5c1.5,3.1,2.7,6.2,3.6,9.6c0.9,3.3,1.5,6.6,1.9,9.9c5-6.3,11.1-11.3,18.5-15c7.3-3.7,15.1-5.6,23.3-5.6
		c10.1,0,18.9,2.1,26.3,6.3c7.4,4.2,13.6,9.9,18.5,17s8.5,15.1,10.9,23.7c2.4,8.7,3.6,17.5,3.6,26.5c0,13-2.3,25.2-7,36.8
		c-4.7,11.5-11.7,20.9-21.2,28c-9.4,7.2-21.3,10.7-35.6,10.7c-6.5,0-12.9-1.1-19.3-3.1c-6.4-2.1-12-5.3-16.7-9.7
		c0.4,2.7,0.6,5.3,0.6,8c0,2.7,0,4.8,0,6.3v39.8l4,16.9h-27.5V443c0-4-0.3-8.5-0.9-13.4c-0.6-5-1.5-9.8-2.7-14.6
		c-1.2-4.8-3-8.9-5.3-12.3L494,399.5z M534,419.3c-6.5,0-12.6,2-18.3,5.9c-5.7,3.9-10.6,8.3-14.6,13v48.1c0,7.4,1.2,14.4,3.6,20.7
		c2.4,6.4,6.2,11.5,11.3,15.3c5.2,3.8,11.8,5.7,20,5.7c7.4,0,13.7-1.6,18.7-4.9c5.1-3.2,9.1-7.5,12.2-12.9c3-5.3,5.2-11.2,6.4-17.6
		c1.2-6.4,1.9-12.7,1.9-19c0-6.7-0.7-13.2-2.1-19.6c-1.4-6.4-3.8-12.2-7-17.5c-3.2-5.2-7.5-9.4-12.7-12.6
		C548.1,420.8,541.7,419.3,534,419.3z"/>
	<path d="M724.6,399.2c1.3,3.2,2.5,6.6,3.4,10c1,3.4,1.6,6.9,2,10.3c5.7-5.7,12.5-10.7,20.3-15c7.8-4.3,15.8-6.4,24-6.4
		c10.5,0,18.9,2.2,25.3,6.6c6.4,4.4,11,10.3,13.9,17.9c2.9,7.5,4.3,16.3,4.3,26.2v95h-23.5v-87.3c0-5.9-0.4-11.7-1.3-17.5
		c-0.9-5.7-3-10.4-6.3-14.2c-3.3-3.7-8.8-5.6-16.5-5.6c-4.6,0-9.3,0.9-14,2.7c-4.8,1.8-9.3,4.1-13.4,7c-4.2,2.9-8,5.9-11.4,9.2
		v105.6H708V443c0-3.8-0.3-8.2-0.9-13.3c-0.6-5.1-1.5-10-2.9-14.9c-1.3-4.9-3.2-8.9-5.7-12.2L724.6,399.2z"/>
	<path d="M920.3,547.4c-13.9,0-25.6-3.5-35-10.4c-9.4-7-16.5-16.1-21.2-27.3c-4.7-11.3-7-23.3-7-36c0-12.8,2.5-24.9,7.6-36.5
		c5.1-11.5,12.4-20.9,22.2-28.2c9.7-7.2,21.5-10.9,35.2-10.9c14.1,0,25.9,3.4,35.3,10.3c9.4,6.9,16.5,15.9,21.2,27.2
		c4.7,11.3,7,23.4,7,36.3c0,13-2.5,25.2-7.4,36.8c-5,11.5-12.3,20.9-22,28C946.3,543.9,934.4,547.4,920.3,547.4z M920.6,529.4
		c7.4,0,13.7-1.8,18.7-5.3c5.1-3.5,9.2-8.2,12.3-13.9c3.1-5.7,5.4-11.9,6.7-18.5c1.3-6.6,2-12.9,2-19c0-6.3-0.6-12.7-1.9-19.3
		c-1.2-6.6-3.3-12.7-6.1-18.3c-2.9-5.6-6.8-10.2-11.9-13.7c-5.1-3.5-11.3-5.3-18.7-5.3c-7.4,0-13.7,1.8-18.7,5.3
		c-5.1,3.5-9.1,8.2-12.2,13.9c-3.1,5.7-5.2,11.9-6.6,18.5c-1.3,6.6-2,12.9-2,19c0,5.9,0.7,12.2,2,18.7c1.3,6.6,3.5,12.7,6.4,18.5
		c3,5.7,6.9,10.4,11.9,14C907.5,527.6,913.5,529.4,920.6,529.4z"/>
</g>
<g>
	<g>
		<path d="M656.2,433.4V539h-23.5V438.3c0-3.8-0.3-8.2-0.9-13.3c-0.6-5.1-1.5-10-2.9-14.9c-1.3-4.9-3.2-8.9-5.7-12.2l26-3.4
			c1.3,3.2,2.5,6.6,3.4,10c1,3.4,1.6,6.9,2,10.3L656.2,433.4z"/>
	</g>
</g>
<g>
	<path d="M685.3,545.1c0,11.9-11.7,23.6-26.2,23.6s-26.2-11.8-26.2-23.6c0-11.9,11.7-19.3,26.2-19.3S685.3,532.2,685.3,545.1z"/>
</g>
<g>
	<ellipse class="st0" cx="659.7" cy="537.6" rx="24.4" ry="9.4"/>
	<path d="M659.7,550.5c-13.9,0-28-4.5-28-13c0-8.5,14.1-13,28-13c13.9,0,28,4.5,28,13C687.7,546.1,673.6,550.5,659.7,550.5z
		 M659.7,531.8c-13.7,0-20.9,4.3-20.9,5.8c0,1.5,7.2,5.8,20.9,5.8c13.7,0,20.9-4.3,20.9-5.8C680.5,536.1,673.4,531.8,659.7,531.8z"
		/>
</g>
<g>
	<path class="st5" d="M632.9,447.1"/>
</g>
<g>
	<path d="M671,418.5"/>
</g>
<g>
	
		<ellipse transform="matrix(0.9755 -0.2198 0.2198 0.9755 -74.562 151.2639)" class="st0" cx="642.4" cy="410.6" rx="3.5" ry="4.7"/>
</g>
<g>
	<g>
		<path d="M1246.8,787.6V861h-16.3V791c0-2.7-0.2-5.7-0.6-9.3c-0.4-3.5-1.1-7-2-10.4c-0.9-3.4-2.3-6.2-4-8.5l18.1-2.4
			c0.9,2.3,1.7,4.6,2.4,7c0.7,2.4,1.1,4.8,1.4,7.2L1246.8,787.6z"/>
	</g>
</g>
<g>
	<path d="M1267,865.3c0,8.2-8.2,16.4-18.2,16.4c-10.1,0-18.2-8.2-18.2-16.4c0-8.2,8.2-13.4,18.2-13.4
		C1258.9,851.9,1267,856.3,1267,865.3z"/>
</g>
<g>
	<ellipse class="st0" cx="1249.2" cy="860.1" rx="17" ry="6.5"/>
	<path d="M1249.2,869.1c-9.7,0-19.5-3.1-19.5-9c0-5.9,9.8-9,19.5-9c9.7,0,19.5,3.1,19.5,9C1268.7,866,1258.9,869.1,1249.2,869.1z
		 M1249.2,856c-9.5,0-14.5,3-14.5,4s5,4,14.5,4c9.5,0,14.5-3,14.5-4S1258.7,856,1249.2,856z"/>
</g>
<g>
	<path class="st5" d="M1230.5,797.1"/>
</g>
<g>
	<path d="M1257.1,777.2"/>
</g>
<g>
	
		<ellipse transform="matrix(0.9755 -0.2198 0.2198 0.9755 -139.3964 290.8608)" class="st0" cx="1237.2" cy="771.7" rx="2.4" ry="3.2"/>
</g>
<circle class="st0" cx="1059.5" cy="-374.5" r="6"/>
<g>
	<g>
		<g>
			<path d="M1186.1,358.8c3,0,6.1,0.5,9.2,1.5c3.1,1,6.1,2.5,9.1,4.6l-5.4,7c-2.2-1.8-4.4-3.2-6.6-4c-2.2-0.8-4.2-1.3-6.2-1.3
				c-2.4,0-4.6,0.6-6.7,1.7c-2,1.1-3.8,2.7-5.4,4.7s-2.8,4.5-3.6,7.4c-0.8,2.9-1.3,6.1-1.3,9.6c0,7.5,1.7,13.3,5.1,17.3
				c3.4,4,7.7,6,12.9,6c2.3,0,4.6-0.4,6.8-1.1c2.2-0.7,4.5-1.8,6.9-3.1l3.2,6.4c-3.2,2-6.3,3.5-9.2,4.5c-3,1-6.3,1.5-10,1.5
				c-5.1,0-9.7-1.3-13.6-3.9c-4-2.6-7.1-6.3-9.4-11.1c-2.3-4.8-3.4-10.4-3.4-16.9c0-6.2,1.3-11.7,3.8-16.3
				c2.5-4.6,5.9-8.2,10.1-10.7C1176.5,360,1181.1,358.8,1186.1,358.8z"/>
			<path d="M1227.9,360.2v36.7c0,2.3,0.2,4.7,0.6,7.1c0.4,2.4,1.3,4.5,2.7,6.1c1.4,1.6,3.6,2.4,6.7,2.4c3,0,5.7-0.6,8.1-1.9
				c2.4-1.3,4.4-3.1,5.9-5.3c1.5-2.3,2.3-4.9,2.3-8v-30c0-0.1-0.1-0.7-0.4-1.7c-0.2-1.1-0.5-2.2-0.7-3.4c-0.2-1.2-0.4-1.8-0.5-2
				h11.5v48c0,1.5,0.3,2.6,0.8,3.4c0.5,0.7,1.3,1.1,2.5,1.1c1.1,0,2.6-0.4,4.6-1.1l2.2,6.5c-1.6,0.9-3.4,1.6-5.3,2.1
				c-2,0.5-3.8,0.8-5.6,0.8c-2.1,0-3.9-0.6-5.5-1.8c-1.6-1.2-2.6-3.3-3.1-6.4c-2.3,2.4-5.1,4.4-8.3,6.1c-3.2,1.7-6.6,2.5-10,2.5
				c-4.4,0-7.9-0.9-10.6-2.8c-2.7-1.8-4.6-4.3-5.8-7.5c-1.2-3.2-1.8-6.8-1.8-11v-32.9l-1.6-7.1H1227.9z"/>
			<path d="M1292.5,359.4c0.6,1.3,1.1,2.6,1.5,4c0.4,1.4,0.6,2.8,0.8,4.1c2.1-2.6,4.7-4.7,7.7-6.3c3.1-1.6,6.3-2.3,9.8-2.3
				c4.2,0,7.9,0.9,11,2.6c3.1,1.8,5.7,4.1,7.7,7.1s3.6,6.3,4.6,10c1,3.6,1.5,7.3,1.5,11.1c0,5.4-1,10.6-2.9,15.4
				c-2,4.8-4.9,8.8-8.9,11.8s-8.9,4.5-14.9,4.5c-2.7,0-5.4-0.4-8.1-1.3c-2.7-0.9-5-2.2-7-4.1c0.2,1.1,0.2,2.2,0.2,3.4s0,2,0,2.6
				v16.7l1.7,7.1h-11.5v-68.2c0-1.7-0.1-3.6-0.4-5.6c-0.2-2.1-0.6-4.1-1.1-6.1c-0.5-2-1.3-3.7-2.2-5.2L1292.5,359.4z M1309.3,367.7
				c-2.7,0-5.3,0.8-7.7,2.5c-2.4,1.6-4.4,3.5-6.1,5.5v20.2c0,3.1,0.5,6,1.5,8.7c1,2.7,2.6,4.8,4.7,6.4c2.2,1.6,5,2.4,8.4,2.4
				c3.1,0,5.7-0.7,7.9-2c2.1-1.4,3.8-3.2,5.1-5.4c1.3-2.2,2.2-4.7,2.7-7.4c0.5-2.7,0.8-5.3,0.8-8c0-2.8-0.3-5.5-0.9-8.2
				c-0.6-2.7-1.6-5.1-2.9-7.3c-1.4-2.2-3.1-4-5.3-5.3C1315.2,368.3,1312.5,367.7,1309.3,367.7z"/>
			<path d="M1360.4,359.4c0.6,1.3,1.1,2.6,1.5,4c0.4,1.4,0.6,2.8,0.8,4.1c2.1-2.6,4.7-4.7,7.7-6.3c3.1-1.6,6.3-2.3,9.8-2.3
				c4.2,0,7.9,0.9,11,2.6c3.1,1.8,5.7,4.1,7.7,7.1s3.6,6.3,4.6,10c1,3.6,1.5,7.3,1.5,11.1c0,5.4-1,10.6-2.9,15.4
				c-2,4.8-4.9,8.8-8.9,11.8c-4,3-8.9,4.5-14.9,4.5c-2.7,0-5.4-0.4-8.1-1.3c-2.7-0.9-5-2.2-7-4.1c0.2,1.1,0.2,2.2,0.2,3.4s0,2,0,2.6
				v16.7l1.7,7.1h-11.5v-68.2c0-1.7-0.1-3.6-0.4-5.6c-0.2-2.1-0.6-4.1-1.1-6.1c-0.5-2-1.3-3.7-2.2-5.2L1360.4,359.4z M1377.2,367.7
				c-2.7,0-5.3,0.8-7.7,2.5c-2.4,1.6-4.4,3.5-6.1,5.5v20.2c0,3.1,0.5,6,1.5,8.7c1,2.7,2.6,4.8,4.7,6.4c2.2,1.6,5,2.4,8.4,2.4
				c3.1,0,5.7-0.7,7.9-2c2.1-1.4,3.8-3.2,5.1-5.4c1.3-2.2,2.2-4.7,2.7-7.4c0.5-2.7,0.8-5.3,0.8-8c0-2.8-0.3-5.5-0.9-8.2
				c-0.6-2.7-1.6-5.1-2.9-7.3c-1.4-2.2-3.1-4-5.3-5.3C1383.1,368.3,1380.4,367.7,1377.2,367.7z"/>
			<path d="M1457.1,359.2c0.6,1.4,1,2.8,1.4,4.2c0.4,1.4,0.7,2.9,0.8,4.3c2.4-2.4,5.2-4.5,8.5-6.3c3.3-1.8,6.6-2.7,10.1-2.7
				c4.4,0,7.9,0.9,10.6,2.8c2.7,1.8,4.6,4.3,5.8,7.5c1.2,3.2,1.8,6.8,1.8,11v39.8h-9.8v-36.6c0-2.5-0.2-4.9-0.5-7.3
				c-0.4-2.4-1.2-4.4-2.6-5.9c-1.4-1.6-3.7-2.3-6.9-2.3c-1.9,0-3.9,0.4-5.9,1.1c-2,0.8-3.9,1.7-5.6,2.9c-1.8,1.2-3.4,2.5-4.8,3.8
				v44.3h-9.8v-42.2c0-1.6-0.1-3.5-0.4-5.6c-0.2-2.1-0.6-4.2-1.2-6.2c-0.6-2-1.4-3.7-2.4-5.1L1457.1,359.2z"/>
			<path d="M1539.2,421.4c-5.8,0-10.7-1.5-14.7-4.4c-4-2.9-6.9-6.7-8.9-11.5c-2-4.7-2.9-9.8-2.9-15.1c0-5.4,1.1-10.5,3.2-15.3
				c2.1-4.8,5.2-8.8,9.3-11.8c4.1-3,9-4.6,14.8-4.6c5.9,0,10.9,1.4,14.8,4.3c4,2.9,6.9,6.7,8.9,11.4c2,4.7,2.9,9.8,2.9,15.2
				c0,5.4-1,10.6-3.1,15.4c-2.1,4.8-5.2,8.8-9.2,11.8C1550.1,419.9,1545.1,421.4,1539.2,421.4z M1539.3,413.9c3.1,0,5.7-0.7,7.9-2.2
				c2.1-1.5,3.8-3.4,5.2-5.8c1.3-2.4,2.3-5,2.8-7.7c0.6-2.8,0.8-5.4,0.8-8c0-2.6-0.3-5.3-0.8-8.1c-0.5-2.8-1.4-5.3-2.6-7.7
				c-1.2-2.4-2.9-4.3-5-5.8c-2.1-1.5-4.7-2.2-7.9-2.2c-3.1,0-5.7,0.7-7.9,2.2c-2.1,1.5-3.8,3.4-5.1,5.8c-1.3,2.4-2.2,5-2.8,7.7
				c-0.6,2.8-0.8,5.4-0.8,8c0,2.5,0.3,5.1,0.8,7.9c0.6,2.8,1.5,5.3,2.7,7.7c1.2,2.4,2.9,4.4,5,5.9
				C1533.9,413.1,1536.4,413.9,1539.3,413.9z"/>
		</g>
	</g>
	<g>
		<path d="M1427.6,373.6v58.3h-9.8v-56.2c0-1.6-0.1-3.5-0.4-5.6c-0.2-2.1-0.6-4.2-1.2-6.2c-0.6-2-1.4-3.7-2.4-5.1l10.9-1.4
			c0.6,1.4,1,2.8,1.4,4.2c0.4,1.4,0.7,2.9,0.8,4.3"/>
	</g>
	<path d="M1439.8,435.4c0,5-4.9,9.9-11,9.9c-6.1,0-11-4.9-11-9.9c0-5,4.9-8.1,11-8.1C1434.9,427.3,1439.8,430,1439.8,435.4z"/>
	<ellipse class="st2" cx="1429.1" cy="432.3" rx="10.2" ry="3.9"/>
	<path class="st5" d="M1417.8,379.3"/>
	<path d="M1433.8,367.3"/>
	<ellipse transform="matrix(0.9755 -0.2198 0.2198 0.9755 -45.2455 321.4808)" class="st0" cx="1421.8" cy="364" rx="1.5" ry="2"/>
</g>
<g>
	<g>
		<g>
			<path d="M1446.8-234.8c3,0,6.1,0.5,9.2,1.5c3.1,1,6.1,2.5,9.1,4.6l-5.4,7c-2.2-1.8-4.4-3.2-6.6-4s-4.2-1.3-6.2-1.3
				c-2.4,0-4.6,0.6-6.7,1.7c-2,1.1-3.8,2.7-5.4,4.7s-2.8,4.5-3.6,7.4c-0.8,2.9-1.3,6.1-1.3,9.6c0,7.5,1.7,13.3,5.1,17.3
				c3.4,4,7.7,6,12.9,6c2.3,0,4.6-0.4,6.8-1.1c2.2-0.7,4.5-1.8,6.9-3.1l3.2,6.4c-3.2,2-6.3,3.5-9.2,4.5c-3,1-6.3,1.5-10,1.5
				c-5.1,0-9.7-1.3-13.6-3.9c-4-2.6-7.1-6.3-9.4-11.1c-2.3-4.8-3.4-10.4-3.4-16.9c0-6.2,1.3-11.7,3.8-16.3
				c2.5-4.6,5.9-8.2,10.1-10.7C1437.2-233.5,1441.8-234.8,1446.8-234.8z"/>
			<path d="M1488.7-233.3v36.7c0,2.3,0.2,4.7,0.6,7.1c0.4,2.4,1.3,4.5,2.7,6.1c1.4,1.6,3.6,2.4,6.7,2.4c3,0,5.7-0.6,8.1-1.9
				c2.4-1.3,4.4-3.1,5.9-5.3c1.5-2.3,2.3-4.9,2.3-8v-30c0-0.1-0.1-0.7-0.4-1.7c-0.2-1.1-0.5-2.2-0.7-3.4c-0.2-1.2-0.4-1.8-0.5-2
				h11.5v48c0,1.5,0.3,2.6,0.8,3.4c0.5,0.7,1.3,1.1,2.5,1.1c1.1,0,2.6-0.4,4.6-1.1l2.2,6.5c-1.6,0.9-3.4,1.6-5.3,2.1
				c-2,0.5-3.8,0.8-5.6,0.8c-2.1,0-3.9-0.6-5.5-1.8c-1.6-1.2-2.6-3.3-3.1-6.4c-2.3,2.4-5.1,4.4-8.3,6.1c-3.2,1.7-6.6,2.5-10,2.5
				c-4.4,0-7.9-0.9-10.6-2.8c-2.7-1.8-4.6-4.3-5.8-7.5c-1.2-3.2-1.8-6.8-1.8-11v-32.9l-1.6-7.1H1488.7z"/>
			<path d="M1553.2-234.2c0.6,1.3,1.1,2.6,1.5,4c0.4,1.4,0.6,2.8,0.8,4.1c2.1-2.6,4.7-4.7,7.7-6.3c3.1-1.6,6.3-2.3,9.8-2.3
				c4.2,0,7.9,0.9,11,2.6c3.1,1.8,5.7,4.1,7.7,7.1s3.6,6.3,4.6,10c1,3.6,1.5,7.3,1.5,11.1c0,5.4-1,10.6-2.9,15.4
				c-2,4.8-4.9,8.8-8.9,11.8c-4,3-8.9,4.5-14.9,4.5c-2.7,0-5.4-0.4-8.1-1.3c-2.7-0.9-5-2.2-7-4.1c0.2,1.1,0.2,2.2,0.2,3.4s0,2,0,2.6
				v16.7l1.7,7.1h-11.5v-68.2c0-1.7-0.1-3.6-0.4-5.6c-0.2-2.1-0.6-4.1-1.1-6.1c-0.5-2-1.3-3.7-2.2-5.2L1553.2-234.2z M1570-225.9
				c-2.7,0-5.3,0.8-7.7,2.5c-2.4,1.6-4.4,3.5-6.1,5.5v20.2c0,3.1,0.5,6,1.5,8.7c1,2.7,2.6,4.8,4.7,6.4c2.2,1.6,5,2.4,8.4,2.4
				c3.1,0,5.7-0.7,7.9-2c2.1-1.4,3.8-3.2,5.1-5.4c1.3-2.2,2.2-4.7,2.7-7.4c0.5-2.7,0.8-5.3,0.8-8c0-2.8-0.3-5.5-0.9-8.2
				c-0.6-2.7-1.6-5.1-2.9-7.3c-1.4-2.2-3.1-4-5.3-5.3C1575.9-225.2,1573.2-225.9,1570-225.9z"/>
			<path d="M1621.1-234.2c0.6,1.3,1.1,2.6,1.5,4c0.4,1.4,0.6,2.8,0.8,4.1c2.1-2.6,4.7-4.7,7.7-6.3c3.1-1.6,6.3-2.3,9.8-2.3
				c4.2,0,7.9,0.9,11,2.6c3.1,1.8,5.7,4.1,7.7,7.1c2,3,3.6,6.3,4.6,10c1,3.6,1.5,7.3,1.5,11.1c0,5.4-1,10.6-2.9,15.4
				c-2,4.8-4.9,8.8-8.9,11.8s-8.9,4.5-14.9,4.5c-2.7,0-5.4-0.4-8.1-1.3c-2.7-0.9-5-2.2-7-4.1c0.2,1.1,0.2,2.2,0.2,3.4s0,2,0,2.6
				v16.7l1.7,7.1h-11.5v-68.2c0-1.7-0.1-3.6-0.4-5.6c-0.2-2.1-0.6-4.1-1.1-6.1c-0.5-2-1.3-3.7-2.2-5.2L1621.1-234.2z M1637.9-225.9
				c-2.7,0-5.3,0.8-7.7,2.5c-2.4,1.6-4.4,3.5-6.1,5.5v20.2c0,3.1,0.5,6,1.5,8.7c1,2.7,2.6,4.8,4.7,6.4c2.2,1.6,5,2.4,8.4,2.4
				c3.1,0,5.7-0.7,7.9-2c2.1-1.4,3.8-3.2,5.1-5.4c1.3-2.2,2.2-4.7,2.7-7.4c0.5-2.7,0.8-5.3,0.8-8c0-2.8-0.3-5.5-0.9-8.2
				c-0.6-2.7-1.6-5.1-2.9-7.3c-1.4-2.2-3.1-4-5.3-5.3C1643.8-225.2,1641.1-225.9,1637.9-225.9z"/>
			<path d="M1717.9-234.3c0.6,1.4,1,2.8,1.4,4.2c0.4,1.4,0.7,2.9,0.8,4.3c2.4-2.4,5.2-4.5,8.5-6.3c3.3-1.8,6.6-2.7,10.1-2.7
				c4.4,0,7.9,0.9,10.6,2.8c2.7,1.8,4.6,4.3,5.8,7.5c1.2,3.2,1.8,6.8,1.8,11v39.8h-9.8v-36.6c0-2.5-0.2-4.9-0.5-7.3
				c-0.4-2.4-1.2-4.4-2.6-5.9c-1.4-1.6-3.7-2.3-6.9-2.3c-1.9,0-3.9,0.4-5.9,1.1c-2,0.8-3.9,1.7-5.6,2.9c-1.8,1.2-3.4,2.5-4.8,3.8
				v44.3h-9.8v-42.2c0-1.6-0.1-3.5-0.4-5.6c-0.2-2.1-0.6-4.2-1.2-6.2c-0.6-2-1.4-3.7-2.4-5.1L1717.9-234.3z"/>
			<path d="M1799.9-172.1c-5.8,0-10.7-1.5-14.7-4.4c-4-2.9-6.9-6.7-8.9-11.5c-2-4.7-2.9-9.8-2.9-15.1c0-5.4,1.1-10.5,3.2-15.3
				c2.1-4.8,5.2-8.8,9.3-11.8c4.1-3,9-4.6,14.8-4.6c5.9,0,10.9,1.4,14.8,4.3c4,2.9,6.9,6.7,8.9,11.4c2,4.7,2.9,9.8,2.9,15.2
				c0,5.4-1,10.6-3.1,15.4c-2.1,4.8-5.2,8.8-9.2,11.8C1810.9-173.6,1805.9-172.1,1799.9-172.1z M1800.1-179.7c3.1,0,5.7-0.7,7.9-2.2
				c2.1-1.5,3.8-3.4,5.2-5.8c1.3-2.4,2.3-5,2.8-7.7c0.6-2.8,0.8-5.4,0.8-8c0-2.6-0.3-5.3-0.8-8.1c-0.5-2.8-1.4-5.3-2.6-7.7
				c-1.2-2.4-2.9-4.3-5-5.8c-2.1-1.5-4.7-2.2-7.9-2.2s-5.7,0.7-7.9,2.2c-2.1,1.5-3.8,3.4-5.1,5.8c-1.3,2.4-2.2,5-2.8,7.7
				c-0.6,2.8-0.8,5.4-0.8,8c0,2.5,0.3,5.1,0.8,7.9c0.6,2.8,1.5,5.3,2.7,7.7s2.9,4.4,5,5.9C1794.6-180.4,1797.1-179.7,1800.1-179.7z"
				/>
		</g>
	</g>
	<g>
		<path d="M1688.3-220v44.3h-9.8v-42.2c0-1.6-0.1-3.5-0.4-5.6c-0.2-2.1-0.6-4.2-1.2-6.2c-0.6-2-1.4-3.7-2.4-5.1l10.9-1.4
			c0.6,1.4,1,2.8,1.4,4.2c0.4,1.4,0.7,2.9,0.8,4.3"/>
	</g>
	<path d="M1700.5-173.1c0,5-4.9,9.9-11,9.9s-11-4.9-11-9.9c0-5,4.9-8.1,11-8.1S1700.5-178.5,1700.5-173.1z"/>
	<ellipse class="st2" cx="1689.8" cy="-176.3" rx="10.2" ry="3.9"/>
	<path class="st5" d="M1678.5-214.2"/>
	<path d="M1694.5-226.2"/>
	
		<ellipse transform="matrix(0.9755 -0.2198 0.2198 0.9755 91.6156 364.2789)" class="st0" cx="1682.5" cy="-229.5" rx="1.5" ry="2"/>
</g>
<text transform="matrix(1 0 0 1 2588.1504 337.1152)" style="font-family:'MyriadPro-Regular'; font-size:12px;">Lorem ipsum</text>
</svg>
